<?xml version="1.0" encoding="utf-8"?>
<!-- Generator: Adobe Illustrator 21.0.0, SVG Export Plug-In . SVG Version: 6.00 Build 0)  -->
<svg version="1.1"
	 id="svg3741" inkscape:version="0.92.2 (5c3e80d, 2017-08-06)" sodipodi:docname="Component.svg" xmlns:cc="http://creativecommons.org/ns#" xmlns:dc="http://purl.org/dc/elements/1.1/" xmlns:inkscape="http://www.inkscape.org/namespaces/inkscape" xmlns:rdf="http://www.w3.org/1999/02/22-rdf-syntax-ns#" xmlns:sodipodi="http://sodipodi.sourceforge.net/DTD/sodipodi-0.dtd" xmlns:svg="http://www.w3.org/2000/svg"
	 xmlns="http://www.w3.org/2000/svg" xmlns:xlink="http://www.w3.org/1999/xlink" x="0px" y="0px" viewBox="0 0 348 348"
	 style="enable-background:new 0 0 348 348;" xml:space="preserve">
<style type="text/css">
	.st0{clip-path:url(#SVGID_2_);}
	.st1{fill-opacity:0;}
	.st2{fill:#FFFFFF;}
	.st3{fill:none;stroke:#000000;stroke-width:2;stroke-linejoin:round;stroke-miterlimit:10;}
	.st4{fill:none;}
	.st5{fill:#FFFFFF;stroke:#000000;stroke-width:0.8175;stroke-linecap:square;stroke-miterlimit:10;}
	.st6{fill:#FFFFFF;stroke:#000000;stroke-width:0.8868;stroke-linecap:square;stroke-miterlimit:10;}
	.st7{fill:#FFFFFF;stroke:#000000;stroke-width:1.0608;stroke-linecap:square;stroke-miterlimit:10;}
	.st8{font-family:'ArialMT';}
	.st9{font-size:34.4123px;}
	.st10{fill:#FFFFFF;stroke:#2B1100;stroke-width:1.4861;stroke-linecap:square;stroke-miterlimit:10;}
	.st11{font-size:26.9059px;}
</style>
<sodipodi:namedview  bordercolor="#666666" borderopacity="1" gridtolerance="10" guidetolerance="10" id="namedview3743" inkscape:current-layer="svg3741" inkscape:cx="72.4237" inkscape:cy="107.83476" inkscape:guide-bbox="true" inkscape:pageopacity="0" inkscape:pageshadow="2" inkscape:window-height="1017" inkscape:window-maximized="1" inkscape:window-width="1920" inkscape:window-x="-8" inkscape:window-y="-8" inkscape:zoom="2.4367816" objecttolerance="10" pagecolor="#ffffff" showgrid="false" showguides="true">
	<sodipodi:guide  id="guide111" inkscape:locked="false" orientation="0,1" position="138.12597,217.0551"></sodipodi:guide>
	<sodipodi:guide  id="guide188" inkscape:locked="false" orientation="0,1" position="124.77766,175.124"></sodipodi:guide>
	<sodipodi:guide  id="guide236" inkscape:locked="false" orientation="0,1" position="118.82896,133.04781"></sodipodi:guide>
	<sodipodi:guide  id="guide284" inkscape:locked="false" orientation="0,1" position="146.75885,91.261803"></sodipodi:guide>
	<sodipodi:guide  id="guide316" inkscape:locked="false" orientation="1,0" position="20.929245,100.74764"></sodipodi:guide>
	<sodipodi:guide  id="guide318" inkscape:locked="false" orientation="1,0" position="136.75825,58.683962"></sodipodi:guide>
	<sodipodi:guide  id="guide343" inkscape:locked="false" orientation="1,0" position="266.33491,119.83019"></sodipodi:guide>
</sodipodi:namedview>
<g>
	<defs>
		<rect id="SVGID_1_" y="0" width="348" height="348"/>
	</defs>
	<clipPath id="SVGID_2_">
		<use xlink:href="#SVGID_1_"  style="overflow:visible;"/>
	</clipPath>
	<g id="g3739" class="st0">
		<path id="path3727" class="st1" d="M0,0h348v348H0V0z"/>
		<path id="path3729" class="st2" d="M-6,0h348v348H-6V0z"/>
		<path id="path3731" class="st1" d="M5.1,5.8H342v337.7H5.1L5.1,5.8z"/>
		<path id="path3733" class="st3" d="M5.1,5.8H342v337.7H5.1L5.1,5.8z"/>
		<path id="path3735" class="st2" d="M282.7,40.6L282.7,40.6c0-8.4,7-15.2,15.6-15.2l0,0c4.1,0,8.1,1.6,11,4.4
			c2.9,2.8,4.6,6.7,4.6,10.7l0,0c0,8.4-7,15.2-15.6,15.2l0,0C289.7,55.7,282.7,48.9,282.7,40.6z"/>
		<path id="path3737" class="st3" d="M282.7,40.6L282.7,40.6c0-8.4,7-15.2,15.6-15.2l0,0c4.1,0,8.1,1.6,11,4.4
			c2.9,2.8,4.6,6.7,4.6,10.7l0,0c0,8.4-7,15.2-15.6,15.2l0,0C289.7,55.7,282.7,48.9,282.7,40.6z"/>
	</g>
</g>
<rect id="rect3751" x="-296.6" y="17.8" class="st4" width="166.6" height="67.3"/>
<rect id="rect3749-5" x="21.8" y="63" class="st5" width="185.6" height="32.5"/>
<polygon id="rect3749-1" class="st6" points="249.6,13.8 249,103.1 219.9,103.1 220.5,13.8 "/>
<rect id="rect3749-5-2" x="22" y="22.4" class="st5" width="185.6" height="32.5"/>
<rect id="rect3789" x="227.1" y="86.9" class="st7" width="15.6" height="8.8"/>
<rect id="rect3789-5" x="227.7" y="23" class="st7" width="15.6" height="8.8"/>
<rect id="rect3789-6" x="227.3" y="38.2" class="st7" width="15.6" height="8.8"/>
<rect id="rect3789-0" x="227" y="54.2" class="st7" width="15.6" height="8.8"/>
<rect id="rect3789-62" x="227" y="70.6" class="st7" width="15.6" height="8.8"/>
<text transform="matrix(0.9707 0 0 1 68.3765 90.9318)" class="st8 st9">TEXT</text>
<text transform="matrix(0.9707 0 0 1 68.0864 51.177)" class="st8 st9">TEXT</text>
<rect id="rect3864" x="21.8" y="109.5" class="st10" width="35.3" height="35.3"/>
<text transform="matrix(1 0 0 1 27.6099 136.299)" class="st8 st11">Q</text>
<rect id="rect3864-9" x="294.2" y="109.5" class="st10" width="35.3" height="35.3"/>
<text transform="matrix(1 0 0 1 301.7148 136.6125)" class="st8 st11">U</text>
<rect id="rect3864-7" x="248.8" y="109.5" class="st10" width="35.3" height="35.3"/>
<text transform="matrix(1 0 0 1 258.6904 136.6125)" class="st8 st11">Y</text>
<rect id="rect3864-98" x="203.4" y="109.5" class="st10" width="35.3" height="35.3"/>
<text transform="matrix(1 0 0 1 212.4785 136.3986)" class="st8 st11">T</text>
<rect id="rect3864-0" x="158" y="109.5" class="st10" width="35.3" height="35.3"/>
<text transform="matrix(1 0 0 1 164.2417 136.3986)" class="st8 st11">R</text>
<rect id="rect3864-982" x="112.6" y="109.5" class="st10" width="35.3" height="35.3"/>
<text transform="matrix(1 0 0 1 120.8066 136.5061)" class="st8 st11">E</text>
<rect id="rect3864-8" x="67.2" y="109.5" class="st10" width="35.3" height="35.3"/>
<text transform="matrix(1 0 0 1 71.0356 136.2912)" class="st8 st11">W</text>
<rect id="rect3864-77" x="21.8" y="162.5" class="st10" width="35.3" height="35.3"/>
<text transform="matrix(1 0 0 1 33.0996 189.6359)" class="st8 st11">I</text>
<rect id="rect3864-9-8" x="294.2" y="162.5" class="st10" width="35.3" height="35.3"/>
<text transform="matrix(1 0 0 1 304.2373 189.5842)" class="st8 st11">F</text>
<rect id="rect3864-7-7" x="248.8" y="162.5" class="st10" width="35.3" height="35.3"/>
<text transform="matrix(1 0 0 1 256.168 189.5842)" class="st8 st11">D</text>
<rect id="rect3864-98-2" x="203.4" y="162.5" class="st10" width="35.3" height="35.3"/>
<text transform="matrix(1 0 0 1 212.4785 189.3693)" class="st8 st11">S</text>
<rect id="rect3864-0-0" x="158" y="162.5" class="st10" width="35.3" height="35.3"/>
<text transform="matrix(1 0 0 1 166.7642 189.3693)" class="st8 st11">A</text>
<rect id="rect3864-982-9" x="112.6" y="162.5" class="st10" width="35.3" height="35.3"/>
<text transform="matrix(1 0 0 1 120.8066 189.4768)" class="st8 st11">P</text>
<rect id="rect3864-8-2" x="67.2" y="162.5" class="st10" width="35.3" height="35.3"/>
<text transform="matrix(1 0 0 1 73.8843 188.9875)" class="st8 st11">O</text>
<rect id="rect3864-4" x="21.8" y="215.5" class="st10" width="35.3" height="35.3"/>
<text transform="matrix(1 0 0 1 27.6099 242.2414)" class="st8 st11">G</text>
<rect id="rect3864-9-0" x="294.2" y="215.5" class="st10" width="35.3" height="35.3"/>
<text transform="matrix(1 0 0 1 301.7148 242.5549)" class="st8 st11">X</text>
<rect id="rect3864-7-6" x="248.8" y="215.5" class="st10" width="35.3" height="35.3"/>
<text transform="matrix(1 0 0 1 258.6904 242.5549)" class="st8 st11">Z</text>
<rect id="rect3864-98-8" x="203.4" y="215.5" class="st10" width="35.3" height="35.3"/>
<text transform="matrix(1 0 0 1 212.4785 242.341)" class="st8 st11">L</text>
<rect id="rect3864-0-6" x="158" y="215.5" class="st10" width="35.3" height="35.3"/>
<text transform="matrix(1 0 0 1 164.4019 242.5012)" class="st8 st11">K</text>
<rect id="rect3864-982-8" x="112.6" y="215.5" class="st10" width="35.3" height="35.3"/>
<text transform="matrix(1 0 0 1 120.8066 242.4475)" class="st8 st11">J</text>
<rect id="rect3864-8-8" x="67.2" y="215.5" class="st10" width="35.3" height="35.3"/>
<text transform="matrix(1 0 0 1 75.0615 242.508)" class="st8 st11">H</text>
<rect id="rect3864-7-8" x="203.4" y="268.4" class="st10" width="35.3" height="35.3"/>
<text transform="matrix(1 0 0 1 210.1812 295.1207)" class="st8 st11">M</text>
<rect id="rect3864-98-6" x="158" y="268.4" class="st10" width="35.3" height="35.3"/>
<text transform="matrix(1 0 0 1 165.9107 295.1646)" class="st8 st11">N</text>
<rect id="rect3864-0-5" x="112.6" y="268.4" class="st10" width="35.3" height="35.3"/>
<text transform="matrix(1 0 0 1 118.838 295.2945)" class="st8 st11">B</text>
<rect id="rect3864-982-2" x="67.2" y="268.4" class="st10" width="35.3" height="35.3"/>
<text transform="matrix(1 0 0 1 75.4029 295.1422)" class="st8 st11">V</text>
<rect id="rect3864-8-4" x="21.8" y="268.4" class="st10" width="35.3" height="35.3"/>
<text transform="matrix(1 0 0 1 26.7964 294.7984)" class="st8 st11">C</text>
<rect id="rect3864-7-8_1_" x="294.2" y="268.4" class="st10" width="35.3" height="35.3"/>
<rect id="rect3864-98-6_1_" x="248.8" y="268.4" class="st10" width="35.3" height="35.3"/>
<image style="overflow:visible;" width="1920" height="1920" xlink:href="../../../../Downloads/unauthorised-156169.png"  transform="matrix(1.526772e-02 0 0 1.526772e-02 297.186 271.4387)">
</image>
</svg>
